<svg xmlns="http://www.w3.org/2000/svg" style="display: none;">

<symbol id="Lightbulb" viewBox="0 0 24 24">
    <path d="M19 6.734c0 4.164-3.75 6.98-3.75 10.266h-1.992c.001-2.079.997-3.826 1.968-5.513.912-1.585 1.774-3.083 1.774-4.753 0-3.108-2.517-4.734-5.004-4.734-2.483 0-4.996 1.626-4.996 4.734 0 1.67.862 3.168 1.774 4.753.971 1.687 1.966 3.434 1.967 5.513h-1.991c0-3.286-3.75-6.103-3.75-10.266 0-4.343 3.498-6.734 6.996-6.734 3.502 0 7.004 2.394 7.004 6.734zm-4 11.766c0 .276-.224.5-.5.5h-5c-.276 0-.5-.224-.5-.5s.224-.5.5-.5h5c.276 0 .5.224.5.5zm0 2c0 .276-.224.5-.5.5h-5c-.276 0-.5-.224-.5-.5s.224-.5.5-.5h5c.276 0 .5.224.5.5zm-1.701 3.159c-.19.216-.465.341-.753.341h-1.093c-.288 0-.562-.125-.752-.341l-1.451-1.659h5.5l-1.451 1.659zm-2.182-11.123l3.633-5.536h-2.113l1.05-3.463-3.794 5.463h2.302l-1.078 3.536z"/>
</symbol>

<symbol id="Car" viewBox="0 0 24 24">
	<path d="M11 11v-3h1.247c.882 0 1.235.297 1.828.909.452.465 1.925 2.091 1.925 2.091h-5zm-1-3h-2.243c-.688 0-1.051.222-1.377.581-.316.348-.895.948-1.506 1.671 1.719.644 4.055.748 5.126.748v-3zm14 5.161c0-2.823-2.03-3.41-2.794-3.631-1.142-.331-1.654-.475-3.031-.794-.55-.545-2.052-2.036-2.389-2.376l-.089-.091c-.666-.679-1.421-1.269-3.172-1.269h-7.64c-.547 0-.791.456-.254.944-.534.462-1.944 1.706-2.34 2.108-1.384 1.402-2.291 2.48-2.291 4.603 0 2.461 1.361 4.258 3.179 4.332.41 1.169 1.512 2.013 2.821 2.013 1.304 0 2.403-.838 2.816-2h6.367c.413 1.162 1.512 2 2.816 2 1.308 0 2.409-.843 2.82-2.01 1.934-.056 3.181-1.505 3.181-3.829zm-18 4.039c-.662 0-1.2-.538-1.2-1.2s.538-1.2 1.2-1.2 1.2.538 1.2 1.2-.538 1.2-1.2 1.2zm12 0c-.662 0-1.2-.538-1.2-1.2s.538-1.2 1.2-1.2 1.2.538 1.2 1.2-.538 1.2-1.2 1.2zm2.832-2.15c-.399-1.188-1.509-2.05-2.832-2.05-1.327 0-2.44.868-2.836 2.062h-6.328c-.396-1.194-1.509-2.062-2.836-2.062-1.319 0-2.426.857-2.829 2.04-.586-.114-1.171-1.037-1.171-2.385 0-1.335.47-1.938 1.714-3.199.725-.735 1.31-1.209 2.263-2.026.34-.291.774-.432 1.222-.43h5.173c1.22 0 1.577.385 2.116.892.419.393 2.682 2.665 2.682 2.665s2.303.554 3.48.895c.84.243 1.35.479 1.35 1.71 0 1.196-.396 1.826-1.168 1.888z"/>
</symbol>

<symbol id="Household" viewBox="0 0 24 24">
	<path d="M21 22h2v2h-22v-2h2v-22h18v22zm-10-3h-2v4h2v-4zm4 0h-2v4h2v-4zm4-17h-14v20h2v-5h10v5h2v-20zm-12 11h2v2h-2v-2zm4 0h2v2h-2v-2zm4 0h2v2h-2v-2zm-8-3h2v2h-2v-2zm4 0h2v2h-2v-2zm4 0h2v2h-2v-2zm-8-3h2v2h-2v-2zm4 0h2v2h-2v-2zm4 0h2v2h-2v-2zm-8-3h2v2h-2v-2zm4 0h2v2h-2v-2zm4 0h2v2h-2v-2z"/>
</symbol>

<symbol id="Tree" viewBox="0 0 24 24">
	<path d="M12.297 5.574l-.005-.005s1.703-1.754 2.388-2.259c1.181-.871 2.743-.339 2.743-.339s.021 1.465-.936 2.06c-.913.568-1.788.333-1.882.307.355-.5.853-1.165 1.521-1.498-.493-.028-1.09.246-1.557.681-.38.353-1.26 1.257-1.57 1.576v3.1c1.068-.86 3.035-2.439 3.603-2.877 1.568-1.212 3.691-.522 3.691-.522s.028 1.963-1.254 2.76c-1.223.76-2.753.298-2.878.263.605-.668 1.563-1.277 2.457-1.722-.898-.122-1.614.157-2.749 1.06-.789.629-2.491 2.013-2.87 2.321v3.201c1.229-.929 3.753-2.811 4.9-3.452 2.85-1.593 5.101-.284 5.101-.284s-.263 2.57-2.061 3.417c-1.714.808-3.837-.076-3.996-.14.893-.782 2.197-1.467 3.585-1.816-1.316-.209-2.626-.195-4.415 1.213-.95.747-2.665 1.997-3.114 2.323l.001 9.08h-2l-.001-9.08c-.45-.328-2.162-1.576-3.112-2.323-1.789-1.408-3.099-1.422-4.415-1.213 1.388.349 2.692 1.034 3.585 1.816-.159.064-2.282.948-3.996.14-1.798-.847-2.061-3.417-2.061-3.417s2.251-1.309 5.101.284c1.146.641 3.67 2.521 4.898 3.452v-3.198c-.37-.301-2.081-1.693-2.874-2.324-1.135-.903-1.851-1.182-2.749-1.06.895.445 1.853 1.054 2.457 1.722-.125.035-1.655.497-2.877-.263-1.282-.797-1.254-2.76-1.254-2.76s2.122-.69 3.691.522c.568.439 2.539 2.021 3.606 2.88v-3.105c-.311-.321-1.189-1.222-1.568-1.574-.467-.435-1.064-.709-1.557-.681.668.333 1.166.998 1.521 1.498-.094.026-.969.261-1.882-.307-.957-.595-.936-2.06-.936-2.06s1.562-.532 2.743.339c.685.505 2.388 2.259 2.388 2.259l-.006.007.297.276.298-.278zm2.895 9.386c.389-.138 2.022-.636 3.583.12 1.788.866 2.037 3.461 2.037 3.461s-2.178 1.42-3.978.549c-1.717-.831-2.297-2.637-2.347-2.801 1.177.203 2.363.618 3.494 1.305-.847-1.062-1.783-1.926-2.789-2.634zm-6.384 0c-.389-.138-2.022-.636-3.583.12-1.788.866-2.037 3.461-2.037 3.461s2.178 1.42 3.978.549c1.717-.831 2.297-2.637 2.347-2.801-1.177.203-2.363.618-3.494 1.305.847-1.062 1.783-1.926 2.789-2.634zm3.664-10.973c.175-.175.866-.929.861-1.969-.005-1.19-1.344-1.996-1.344-1.996s-1.332.811-1.326 2.009c.006 1.143.832 1.924.908 1.993.194-.689.276-1.437.198-2.227.355.734.58 1.463.703 2.19z"/>
</symbol>

</svg>
